<svg xmlns="http://www.w3.org/2000/svg" xmlns:xlink="http://www.w3.org/1999/xlink" width="300" zoomAndPan="magnify" viewBox="0 0 224.87999 67.499998" height="90" preserveAspectRatio="xMidYMid meet" version="1.0"><defs><g/><clipPath id="3c3ebac47a"><path d="M 0.765625 0 L 223.992188 0 L 223.992188 67.003906 L 0.765625 67.003906 Z M 0.765625 0 " clip-rule="nonzero"/></clipPath><clipPath id="404362bb0b"><path d="M 6.613281 1.445312 L 70.386719 1.445312 L 70.386719 65.214844 L 6.613281 65.214844 Z M 6.613281 1.445312 " clip-rule="nonzero"/></clipPath><clipPath id="7c2127fc81"><path d="M 12.078125 10.820312 L 44.824219 10.820312 L 44.824219 57.355469 L 12.078125 57.355469 Z M 12.078125 10.820312 " clip-rule="nonzero"/></clipPath><clipPath id="7a291781ac"><path d="M 34.804688 10.820312 L 72.726562 10.820312 L 72.726562 49 L 34.804688 49 Z M 34.804688 10.820312 " clip-rule="nonzero"/></clipPath><clipPath id="3ef813564e"><path d="M 37 19 L 61 19 L 61 57.355469 L 37 57.355469 Z M 37 19 " clip-rule="nonzero"/></clipPath></defs><g clip-path="url(#3c3ebac47a)"><path fill="#ffffff" d="M 0.765625 0 L 224.113281 0 L 224.113281 67.003906 L 0.765625 67.003906 Z M 0.765625 0 " fill-opacity="1" fill-rule="nonzero"/><path fill="#ffffff" d="M 0.765625 0 L 224.113281 0 L 224.113281 67.003906 L 0.765625 67.003906 Z M 0.765625 0 " fill-opacity="1" fill-rule="nonzero"/></g><g fill="#000000" fill-opacity="1"><g transform="translate(80.149432, 41.491478)"><g><path d="M 8.953125 -18.765625 C 10.484375 -18.765625 11.816406 -18.492188 12.953125 -17.953125 C 14.097656 -17.410156 15.050781 -16.679688 15.8125 -15.765625 C 16.570312 -14.859375 17.140625 -13.84375 17.515625 -12.71875 C 17.898438 -11.59375 18.09375 -10.445312 18.09375 -9.28125 C 18.09375 -8.101562 17.898438 -6.960938 17.515625 -5.859375 C 17.140625 -4.765625 16.570312 -3.773438 15.8125 -2.890625 C 15.050781 -2.003906 14.097656 -1.300781 12.953125 -0.78125 C 11.816406 -0.257812 10.484375 0 8.953125 0 L 2.28125 0 L 2.28125 -18.765625 Z M 8.953125 -2.6875 C 10.390625 -2.6875 11.585938 -3.003906 12.546875 -3.640625 C 13.515625 -4.273438 14.238281 -5.097656 14.71875 -6.109375 C 15.195312 -7.117188 15.4375 -8.175781 15.4375 -9.28125 C 15.4375 -10.113281 15.300781 -10.925781 15.03125 -11.71875 C 14.757812 -12.519531 14.351562 -13.25 13.8125 -13.90625 C 13.269531 -14.570312 12.59375 -15.097656 11.78125 -15.484375 C 10.976562 -15.878906 10.035156 -16.078125 8.953125 -16.078125 L 4.96875 -16.078125 L 4.96875 -2.6875 Z M 8.953125 -2.6875 "/></g></g></g><g fill="#000000" fill-opacity="1"><g transform="translate(99.404896, 41.491478)"><g><path d="M 16.109375 -7.8125 C 16.128906 -7.738281 16.140625 -7.664062 16.140625 -7.59375 C 16.140625 -7.53125 16.140625 -7.453125 16.140625 -7.359375 C 16.140625 -7.078125 16.109375 -6.8125 16.046875 -6.5625 L 3.875 -6.5625 C 3.875 -5.625 4.125 -4.816406 4.625 -4.140625 C 5.132812 -3.472656 5.765625 -2.957031 6.515625 -2.59375 C 7.273438 -2.226562 8.007812 -2.046875 8.71875 -2.046875 C 9.601562 -2.046875 10.429688 -2.238281 11.203125 -2.625 C 11.972656 -3.019531 12.570312 -3.625 13 -4.4375 L 15.6875 -4.4375 C 15.332031 -3.394531 14.789062 -2.519531 14.0625 -1.8125 C 13.332031 -1.113281 12.5 -0.59375 11.5625 -0.25 C 10.632812 0.09375 9.675781 0.265625 8.6875 0.265625 C 7.769531 0.265625 6.867188 0.109375 5.984375 -0.203125 C 5.097656 -0.515625 4.300781 -0.976562 3.59375 -1.59375 C 2.882812 -2.21875 2.320312 -2.992188 1.90625 -3.921875 C 1.488281 -4.847656 1.28125 -5.929688 1.28125 -7.171875 C 1.28125 -8.410156 1.488281 -9.488281 1.90625 -10.40625 C 2.320312 -11.332031 2.882812 -12.101562 3.59375 -12.71875 C 4.300781 -13.34375 5.097656 -13.8125 5.984375 -14.125 C 6.867188 -14.4375 7.789062 -14.59375 8.75 -14.59375 C 9.9375 -14.59375 11.070312 -14.335938 12.15625 -13.828125 C 13.25 -13.328125 14.15625 -12.578125 14.875 -11.578125 C 15.601562 -10.578125 16.015625 -9.320312 16.109375 -7.8125 Z M 13.375 -8.71875 C 13.207031 -9.582031 12.890625 -10.273438 12.421875 -10.796875 C 11.953125 -11.328125 11.394531 -11.710938 10.75 -11.953125 C 10.101562 -12.191406 9.4375 -12.3125 8.75 -12.3125 C 8.050781 -12.3125 7.367188 -12.191406 6.703125 -11.953125 C 6.046875 -11.710938 5.472656 -11.328125 4.984375 -10.796875 C 4.492188 -10.265625 4.160156 -9.570312 3.984375 -8.71875 Z M 13.375 -8.71875 "/></g></g></g><g fill="#000000" fill-opacity="1"><g transform="translate(116.933991, 41.491478)"><g><path d="M 11.375 -14.375 L 14.140625 -14.375 L 8.3125 0.109375 L 6.25 0.109375 L 0.40625 -14.375 L 3.15625 -14.375 L 5.53125 -8.53125 L 7.28125 -3.484375 L 9.03125 -8.484375 Z M 11.375 -14.375 "/></g></g></g><g fill="#000000" fill-opacity="1"><g transform="translate(131.515034, 41.491478)"><g><path d="M 16.109375 -7.8125 C 16.128906 -7.738281 16.140625 -7.664062 16.140625 -7.59375 C 16.140625 -7.53125 16.140625 -7.453125 16.140625 -7.359375 C 16.140625 -7.078125 16.109375 -6.8125 16.046875 -6.5625 L 3.875 -6.5625 C 3.875 -5.625 4.125 -4.816406 4.625 -4.140625 C 5.132812 -3.472656 5.765625 -2.957031 6.515625 -2.59375 C 7.273438 -2.226562 8.007812 -2.046875 8.71875 -2.046875 C 9.601562 -2.046875 10.429688 -2.238281 11.203125 -2.625 C 11.972656 -3.019531 12.570312 -3.625 13 -4.4375 L 15.6875 -4.4375 C 15.332031 -3.394531 14.789062 -2.519531 14.0625 -1.8125 C 13.332031 -1.113281 12.5 -0.59375 11.5625 -0.25 C 10.632812 0.09375 9.675781 0.265625 8.6875 0.265625 C 7.769531 0.265625 6.867188 0.109375 5.984375 -0.203125 C 5.097656 -0.515625 4.300781 -0.976562 3.59375 -1.59375 C 2.882812 -2.21875 2.320312 -2.992188 1.90625 -3.921875 C 1.488281 -4.847656 1.28125 -5.929688 1.28125 -7.171875 C 1.28125 -8.410156 1.488281 -9.488281 1.90625 -10.40625 C 2.320312 -11.332031 2.882812 -12.101562 3.59375 -12.71875 C 4.300781 -13.34375 5.097656 -13.8125 5.984375 -14.125 C 6.867188 -14.4375 7.789062 -14.59375 8.75 -14.59375 C 9.9375 -14.59375 11.070312 -14.335938 12.15625 -13.828125 C 13.25 -13.328125 14.15625 -12.578125 14.875 -11.578125 C 15.601562 -10.578125 16.015625 -9.320312 16.109375 -7.8125 Z M 13.375 -8.71875 C 13.207031 -9.582031 12.890625 -10.273438 12.421875 -10.796875 C 11.953125 -11.328125 11.394531 -11.710938 10.75 -11.953125 C 10.101562 -12.191406 9.4375 -12.3125 8.75 -12.3125 C 8.050781 -12.3125 7.367188 -12.191406 6.703125 -11.953125 C 6.046875 -11.710938 5.472656 -11.328125 4.984375 -10.796875 C 4.492188 -10.265625 4.160156 -9.570312 3.984375 -8.71875 Z M 13.375 -8.71875 "/></g></g></g><g fill="#000000" fill-opacity="1"><g transform="translate(149.044129, 41.491478)"><g><path d="M 2 0 L 2 -18.609375 L 4.59375 -18.609375 L 4.59375 0 Z M 2 0 "/></g></g></g><g fill="#000000" fill-opacity="1"><g transform="translate(155.630835, 41.491478)"><g><path d="M 16.875 -7.171875 C 16.875 -5.929688 16.65625 -4.847656 16.21875 -3.921875 C 15.789062 -2.992188 15.203125 -2.21875 14.453125 -1.59375 C 13.710938 -0.976562 12.875 -0.515625 11.9375 -0.203125 C 11.007812 0.109375 10.0625 0.265625 9.09375 0.265625 C 8.132812 0.265625 7.191406 0.109375 6.265625 -0.203125 C 5.347656 -0.515625 4.519531 -0.976562 3.78125 -1.59375 C 3.050781 -2.21875 2.46875 -2.992188 2.03125 -3.921875 C 1.59375 -4.847656 1.375 -5.929688 1.375 -7.171875 C 1.375 -8.410156 1.59375 -9.492188 2.03125 -10.421875 C 2.46875 -11.359375 3.054688 -12.132812 3.796875 -12.75 C 4.546875 -13.375 5.382812 -13.84375 6.3125 -14.15625 C 7.238281 -14.46875 8.191406 -14.625 9.171875 -14.625 C 10.140625 -14.625 11.082031 -14.46875 12 -14.15625 C 12.914062 -13.84375 13.738281 -13.375 14.46875 -12.75 C 15.207031 -12.132812 15.789062 -11.359375 16.21875 -10.421875 C 16.65625 -9.492188 16.875 -8.410156 16.875 -7.171875 Z M 3.984375 -7.171875 C 3.984375 -6.035156 4.234375 -5.09375 4.734375 -4.34375 C 5.242188 -3.59375 5.890625 -3.023438 6.671875 -2.640625 C 7.460938 -2.265625 8.285156 -2.078125 9.140625 -2.078125 C 10.003906 -2.078125 10.828125 -2.265625 11.609375 -2.640625 C 12.390625 -3.023438 13.03125 -3.597656 13.53125 -4.359375 C 14.039062 -5.117188 14.296875 -6.054688 14.296875 -7.171875 C 14.296875 -8.304688 14.046875 -9.253906 13.546875 -10.015625 C 13.054688 -10.773438 12.414062 -11.347656 11.625 -11.734375 C 10.832031 -12.117188 10.015625 -12.3125 9.171875 -12.3125 C 8.296875 -12.3125 7.460938 -12.117188 6.671875 -11.734375 C 5.890625 -11.347656 5.242188 -10.78125 4.734375 -10.03125 C 4.234375 -9.28125 3.984375 -8.328125 3.984375 -7.171875 Z M 3.984375 -7.171875 "/></g></g></g><g fill="#000000" fill-opacity="1"><g transform="translate(174.062965, 41.491478)"><g><path d="M 1.96875 4.203125 L 1.96875 -14.375 L 4.578125 -14.375 L 4.578125 -12.46875 C 5.085938 -13.25 5.796875 -13.800781 6.703125 -14.125 C 7.617188 -14.457031 8.53125 -14.625 9.4375 -14.625 C 11.101562 -14.625 12.476562 -14.269531 13.5625 -13.5625 C 14.65625 -12.863281 15.472656 -11.945312 16.015625 -10.8125 C 16.554688 -9.675781 16.828125 -8.457031 16.828125 -7.15625 C 16.828125 -5.851562 16.546875 -4.640625 15.984375 -3.515625 C 15.429688 -2.390625 14.601562 -1.484375 13.5 -0.796875 C 12.40625 -0.109375 11.039062 0.234375 9.40625 0.234375 C 8.519531 0.234375 7.648438 0.09375 6.796875 -0.1875 C 5.953125 -0.46875 5.210938 -1.035156 4.578125 -1.890625 L 4.578125 4.203125 Z M 4.578125 -7.203125 C 4.578125 -6.066406 4.8125 -5.117188 5.28125 -4.359375 C 5.75 -3.597656 6.351562 -3.023438 7.09375 -2.640625 C 7.84375 -2.265625 8.613281 -2.078125 9.40625 -2.078125 C 10.46875 -2.078125 11.359375 -2.320312 12.078125 -2.8125 C 12.796875 -3.3125 13.332031 -3.953125 13.6875 -4.734375 C 14.039062 -5.523438 14.21875 -6.347656 14.21875 -7.203125 C 14.21875 -8.066406 14.039062 -8.890625 13.6875 -9.671875 C 13.332031 -10.453125 12.800781 -11.085938 12.09375 -11.578125 C 11.382812 -12.078125 10.5 -12.328125 9.4375 -12.328125 C 8.632812 -12.328125 7.859375 -12.132812 7.109375 -11.75 C 6.367188 -11.375 5.757812 -10.8125 5.28125 -10.0625 C 4.8125 -9.3125 4.578125 -8.359375 4.578125 -7.203125 Z M 4.578125 -7.203125 "/></g></g></g><g fill="#000000" fill-opacity="1"><g transform="translate(192.362301, 41.491478)"><g><path d="M 16.109375 -7.8125 C 16.128906 -7.738281 16.140625 -7.664062 16.140625 -7.59375 C 16.140625 -7.53125 16.140625 -7.453125 16.140625 -7.359375 C 16.140625 -7.078125 16.109375 -6.8125 16.046875 -6.5625 L 3.875 -6.5625 C 3.875 -5.625 4.125 -4.816406 4.625 -4.140625 C 5.132812 -3.472656 5.765625 -2.957031 6.515625 -2.59375 C 7.273438 -2.226562 8.007812 -2.046875 8.71875 -2.046875 C 9.601562 -2.046875 10.429688 -2.238281 11.203125 -2.625 C 11.972656 -3.019531 12.570312 -3.625 13 -4.4375 L 15.6875 -4.4375 C 15.332031 -3.394531 14.789062 -2.519531 14.0625 -1.8125 C 13.332031 -1.113281 12.5 -0.59375 11.5625 -0.25 C 10.632812 0.09375 9.675781 0.265625 8.6875 0.265625 C 7.769531 0.265625 6.867188 0.109375 5.984375 -0.203125 C 5.097656 -0.515625 4.300781 -0.976562 3.59375 -1.59375 C 2.882812 -2.21875 2.320312 -2.992188 1.90625 -3.921875 C 1.488281 -4.847656 1.28125 -5.929688 1.28125 -7.171875 C 1.28125 -8.410156 1.488281 -9.488281 1.90625 -10.40625 C 2.320312 -11.332031 2.882812 -12.101562 3.59375 -12.71875 C 4.300781 -13.34375 5.097656 -13.8125 5.984375 -14.125 C 6.867188 -14.4375 7.789062 -14.59375 8.75 -14.59375 C 9.9375 -14.59375 11.070312 -14.335938 12.15625 -13.828125 C 13.25 -13.328125 14.15625 -12.578125 14.875 -11.578125 C 15.601562 -10.578125 16.015625 -9.320312 16.109375 -7.8125 Z M 13.375 -8.71875 C 13.207031 -9.582031 12.890625 -10.273438 12.421875 -10.796875 C 11.953125 -11.328125 11.394531 -11.710938 10.75 -11.953125 C 10.101562 -12.191406 9.4375 -12.3125 8.75 -12.3125 C 8.050781 -12.3125 7.367188 -12.191406 6.703125 -11.953125 C 6.046875 -11.710938 5.472656 -11.328125 4.984375 -10.796875 C 4.492188 -10.265625 4.160156 -9.570312 3.984375 -8.71875 Z M 13.375 -8.71875 "/></g></g></g><g fill="#000000" fill-opacity="1"><g transform="translate(209.891396, 41.491478)"><g><path d="M 4.578125 -12.59375 C 5.085938 -13.320312 5.691406 -13.847656 6.390625 -14.171875 C 7.085938 -14.503906 7.835938 -14.671875 8.640625 -14.671875 C 8.921875 -14.671875 9.203125 -14.648438 9.484375 -14.609375 C 9.765625 -14.578125 10.050781 -14.523438 10.34375 -14.453125 L 10.34375 -12.171875 C 9.914062 -12.296875 9.472656 -12.359375 9.015625 -12.359375 C 8.210938 -12.359375 7.472656 -12.15625 6.796875 -11.75 C 6.128906 -11.351562 5.59375 -10.8125 5.1875 -10.125 C 4.78125 -9.445312 4.578125 -8.664062 4.578125 -7.78125 L 4.578125 0 L 2 0 L 2 -14.359375 L 4.578125 -14.359375 Z M 4.578125 -12.59375 "/></g></g></g><g clip-path="url(#404362bb0b)"><path fill="#000000" d="M 38.660156 1.445312 C 20.996094 1.445312 6.613281 15.824219 6.613281 33.492188 C 6.613281 51.15625 20.996094 65.539062 38.660156 65.539062 C 56.324219 65.539062 70.707031 51.15625 70.707031 33.492188 C 70.707031 15.824219 56.324219 1.445312 38.660156 1.445312 Z M 38.660156 64.996094 C 21.292969 64.996094 7.15625 50.859375 7.15625 33.492188 C 7.15625 16.125 21.292969 1.984375 38.660156 1.984375 C 56.027344 1.984375 70.164062 16.125 70.164062 33.492188 C 70.164062 50.859375 56.027344 64.996094 38.660156 64.996094 Z M 38.660156 64.996094 " fill-opacity="1" fill-rule="nonzero"/></g><g clip-path="url(#7c2127fc81)"><path fill="#000000" d="M 44.351562 48.445312 C 44.042969 47.511719 43.695312 46.734375 43.324219 46.164062 L 43.164062 45.914062 L 26.261719 45.914062 L 26.261719 17.472656 C 26.261719 16.140625 26.09375 15.042969 25.777344 14.203125 C 25.4375 13.328125 24.925781 12.632812 24.246094 12.128906 C 23.589844 11.640625 22.769531 11.300781 21.820312 11.113281 C 20.910156 10.945312 19.859375 10.851562 18.683594 10.851562 C 17.570312 10.851562 16.382812 10.9375 15.160156 11.113281 C 13.933594 11.292969 13.0625 11.425781 12.519531 11.515625 L 12.078125 11.601562 L 12.078125 49.964844 C 12.078125 52.203125 12.757812 54.007812 14.105469 55.332031 C 15.449219 56.65625 17.292969 57.324219 19.582031 57.324219 L 39.640625 57.324219 C 41.171875 57.324219 42.4375 56.867188 43.386719 55.960938 C 44.34375 55.054688 44.824219 53.527344 44.824219 51.429688 C 44.824219 50.40625 44.664062 49.398438 44.351562 48.445312 Z M 42.628906 55.191406 C 41.875 55.90625 40.898438 56.253906 39.640625 56.253906 L 19.582031 56.253906 C 17.570312 56.253906 16.027344 55.703125 14.882812 54.574219 C 13.726562 53.441406 13.167969 51.941406 13.167969 49.964844 L 13.167969 12.492188 C 13.6875 12.40625 14.398438 12.300781 15.316406 12.167969 C 16.484375 11.996094 17.617188 11.921875 18.683594 11.921875 C 19.789062 11.921875 20.769531 12.003906 21.605469 12.167969 C 22.398438 12.324219 23.070312 12.601562 23.597656 12.988281 C 24.113281 13.359375 24.5 13.902344 24.757812 14.585938 C 25.035156 15.304688 25.171875 16.28125 25.171875 17.480469 L 25.171875 46.992188 L 42.539062 46.992188 C 42.808594 47.464844 43.070312 48.066406 43.308594 48.789062 C 43.582031 49.632812 43.726562 50.53125 43.726562 51.445312 C 43.734375 53.234375 43.363281 54.496094 42.628906 55.191406 Z M 42.628906 55.191406 " fill-opacity="1" fill-rule="nonzero"/></g><g clip-path="url(#7a291781ac)"><path fill="#000000" d="M 72.722656 10.824219 L 60.886719 10.824219 L 54.597656 35.433594 C 54.324219 36.503906 54.066406 37.789062 53.824219 39.265625 C 53.40625 36.933594 52.804688 34.273438 52.023438 31.324219 L 46.371094 10.824219 L 34.804688 10.824219 L 36.140625 15.25 L 36.980469 15.050781 L 35.96875 11.699219 L 45.71875 11.699219 L 51.191406 31.550781 C 52.238281 35.503906 52.960938 38.921875 53.339844 41.722656 L 53.390625 42.097656 L 54.277344 42.097656 L 54.328125 41.722656 C 54.660156 39.261719 55.03125 37.21875 55.429688 35.648438 L 61.550781 11.699219 L 71.566406 11.699219 L 60.589844 48.761719 L 61.425781 48.960938 Z M 72.722656 10.824219 " fill-opacity="1" fill-rule="nonzero"/></g><g clip-path="url(#3ef813564e)"><path fill="#000000" d="M 58.300781 56.476562 L 49.464844 56.476562 L 38.191406 19.066406 L 37.351562 19.269531 L 48.734375 57.039062 L 48.828125 57.347656 L 58.941406 57.347656 L 60.238281 52.980469 L 59.398438 52.78125 Z M 58.300781 56.476562 " fill-opacity="1" fill-rule="nonzero"/></g></svg>