<svg xmlns="http://www.w3.org/2000/svg" xmlns:xlink="http://www.w3.org/1999/xlink" width="132" zoomAndPan="magnify" viewBox="0 0 98.88 30.000001" height="40" preserveAspectRatio="xMidYMid meet" version="1.0"><defs><g/><clipPath id="c62fbb7c91"><path d="M 1.535156 0 L 97.226562 0 L 97.226562 29.03125 L 1.535156 29.03125 Z M 1.535156 0 " clip-rule="nonzero"/></clipPath><clipPath id="a655bcfc5e"><path d="M 3.570312 0.625 L 31.199219 0.625 L 31.199219 28.257812 L 3.570312 28.257812 Z M 3.570312 0.625 " clip-rule="nonzero"/></clipPath><clipPath id="2219904a8b"><path d="M 5.9375 4.6875 L 20.125 4.6875 L 20.125 24.851562 L 5.9375 24.851562 Z M 5.9375 4.6875 " clip-rule="nonzero"/></clipPath><clipPath id="9671545a47"><path d="M 15.785156 4.6875 L 32.214844 4.6875 L 32.214844 22 L 15.785156 22 Z M 15.785156 4.6875 " clip-rule="nonzero"/></clipPath><clipPath id="f26532fec5"><path d="M 16 8 L 27 8 L 27 24.851562 L 16 24.851562 Z M 16 8 " clip-rule="nonzero"/></clipPath></defs><g clip-path="url(#c62fbb7c91)"><path fill="#ffffff" d="M 1.535156 0 L 97.34375 0 L 97.34375 29.03125 L 1.535156 29.03125 Z M 1.535156 0 " fill-opacity="1" fill-rule="nonzero"/><path fill="#ffffff" d="M 1.535156 0 L 97.34375 0 L 97.34375 29.03125 L 1.535156 29.03125 Z M 1.535156 0 " fill-opacity="1" fill-rule="nonzero"/></g><g fill="#000000" fill-opacity="1"><g transform="translate(35.4317, 17.977991)"><g><path d="M 3.875 -8.125 C 4.539062 -8.125 5.117188 -8.003906 5.609375 -7.765625 C 6.109375 -7.535156 6.519531 -7.222656 6.84375 -6.828125 C 7.175781 -6.429688 7.425781 -5.988281 7.59375 -5.5 C 7.757812 -5.019531 7.84375 -4.523438 7.84375 -4.015625 C 7.84375 -3.515625 7.757812 -3.023438 7.59375 -2.546875 C 7.425781 -2.066406 7.175781 -1.632812 6.84375 -1.25 C 6.519531 -0.863281 6.109375 -0.554688 5.609375 -0.328125 C 5.117188 -0.109375 4.539062 0 3.875 0 L 0.984375 0 L 0.984375 -8.125 Z M 3.875 -1.15625 C 4.5 -1.15625 5.019531 -1.296875 5.4375 -1.578125 C 5.851562 -1.859375 6.164062 -2.21875 6.375 -2.65625 C 6.582031 -3.09375 6.6875 -3.546875 6.6875 -4.015625 C 6.6875 -4.378906 6.625 -4.734375 6.5 -5.078125 C 6.382812 -5.421875 6.207031 -5.734375 5.96875 -6.015625 C 5.738281 -6.304688 5.445312 -6.535156 5.09375 -6.703125 C 4.75 -6.878906 4.34375 -6.96875 3.875 -6.96875 L 2.15625 -6.96875 L 2.15625 -1.15625 Z M 3.875 -1.15625 "/></g></g></g><g fill="#000000" fill-opacity="1"><g transform="translate(43.774968, 17.977991)"><g><path d="M 6.984375 -3.390625 C 6.984375 -3.359375 6.984375 -3.328125 6.984375 -3.296875 C 6.984375 -3.265625 6.984375 -3.226562 6.984375 -3.1875 C 6.984375 -3.0625 6.972656 -2.945312 6.953125 -2.84375 L 1.6875 -2.84375 C 1.6875 -2.4375 1.796875 -2.085938 2.015625 -1.796875 C 2.234375 -1.503906 2.503906 -1.28125 2.828125 -1.125 C 3.148438 -0.96875 3.46875 -0.890625 3.78125 -0.890625 C 4.164062 -0.890625 4.523438 -0.972656 4.859375 -1.140625 C 5.191406 -1.304688 5.445312 -1.566406 5.625 -1.921875 L 6.796875 -1.921875 C 6.640625 -1.472656 6.40625 -1.09375 6.09375 -0.78125 C 5.78125 -0.476562 5.421875 -0.253906 5.015625 -0.109375 C 4.609375 0.0351562 4.191406 0.109375 3.765625 0.109375 C 3.367188 0.109375 2.976562 0.046875 2.59375 -0.078125 C 2.207031 -0.210938 1.859375 -0.414062 1.546875 -0.6875 C 1.242188 -0.957031 1 -1.289062 0.8125 -1.6875 C 0.632812 -2.09375 0.546875 -2.566406 0.546875 -3.109375 C 0.546875 -3.648438 0.632812 -4.117188 0.8125 -4.515625 C 1 -4.910156 1.242188 -5.242188 1.546875 -5.515625 C 1.859375 -5.785156 2.207031 -5.988281 2.59375 -6.125 C 2.976562 -6.257812 3.375 -6.328125 3.78125 -6.328125 C 4.300781 -6.328125 4.796875 -6.21875 5.265625 -6 C 5.742188 -5.78125 6.140625 -5.453125 6.453125 -5.015625 C 6.765625 -4.578125 6.941406 -4.035156 6.984375 -3.390625 Z M 5.796875 -3.78125 C 5.722656 -4.15625 5.582031 -4.453125 5.375 -4.671875 C 5.175781 -4.898438 4.9375 -5.066406 4.65625 -5.171875 C 4.375 -5.273438 4.082031 -5.328125 3.78125 -5.328125 C 3.488281 -5.328125 3.195312 -5.273438 2.90625 -5.171875 C 2.613281 -5.066406 2.363281 -4.898438 2.15625 -4.671875 C 1.945312 -4.441406 1.804688 -4.144531 1.734375 -3.78125 Z M 5.796875 -3.78125 "/></g></g></g><g fill="#000000" fill-opacity="1"><g transform="translate(51.370211, 17.977991)"><g><path d="M 4.921875 -6.234375 L 6.125 -6.234375 L 3.609375 0.046875 L 2.703125 0.046875 L 0.171875 -6.234375 L 1.375 -6.234375 L 2.390625 -3.703125 L 3.15625 -1.515625 L 3.921875 -3.671875 Z M 4.921875 -6.234375 "/></g></g></g><g fill="#000000" fill-opacity="1"><g transform="translate(57.688083, 17.977991)"><g><path d="M 6.984375 -3.390625 C 6.984375 -3.359375 6.984375 -3.328125 6.984375 -3.296875 C 6.984375 -3.265625 6.984375 -3.226562 6.984375 -3.1875 C 6.984375 -3.0625 6.972656 -2.945312 6.953125 -2.84375 L 1.6875 -2.84375 C 1.6875 -2.4375 1.796875 -2.085938 2.015625 -1.796875 C 2.234375 -1.503906 2.503906 -1.28125 2.828125 -1.125 C 3.148438 -0.96875 3.46875 -0.890625 3.78125 -0.890625 C 4.164062 -0.890625 4.523438 -0.972656 4.859375 -1.140625 C 5.191406 -1.304688 5.445312 -1.566406 5.625 -1.921875 L 6.796875 -1.921875 C 6.640625 -1.472656 6.40625 -1.09375 6.09375 -0.78125 C 5.78125 -0.476562 5.421875 -0.253906 5.015625 -0.109375 C 4.609375 0.0351562 4.191406 0.109375 3.765625 0.109375 C 3.367188 0.109375 2.976562 0.046875 2.59375 -0.078125 C 2.207031 -0.210938 1.859375 -0.414062 1.546875 -0.6875 C 1.242188 -0.957031 1 -1.289062 0.8125 -1.6875 C 0.632812 -2.09375 0.546875 -2.566406 0.546875 -3.109375 C 0.546875 -3.648438 0.632812 -4.117188 0.8125 -4.515625 C 1 -4.910156 1.242188 -5.242188 1.546875 -5.515625 C 1.859375 -5.785156 2.207031 -5.988281 2.59375 -6.125 C 2.976562 -6.257812 3.375 -6.328125 3.78125 -6.328125 C 4.300781 -6.328125 4.796875 -6.21875 5.265625 -6 C 5.742188 -5.78125 6.140625 -5.453125 6.453125 -5.015625 C 6.765625 -4.578125 6.941406 -4.035156 6.984375 -3.390625 Z M 5.796875 -3.78125 C 5.722656 -4.15625 5.582031 -4.453125 5.375 -4.671875 C 5.175781 -4.898438 4.9375 -5.066406 4.65625 -5.171875 C 4.375 -5.273438 4.082031 -5.328125 3.78125 -5.328125 C 3.488281 -5.328125 3.195312 -5.273438 2.90625 -5.171875 C 2.613281 -5.066406 2.363281 -4.898438 2.15625 -4.671875 C 1.945312 -4.441406 1.804688 -4.144531 1.734375 -3.78125 Z M 5.796875 -3.78125 "/></g></g></g><g fill="#000000" fill-opacity="1"><g transform="translate(65.283326, 17.977991)"><g><path d="M 0.859375 0 L 0.859375 -8.0625 L 2 -8.0625 L 2 0 Z M 0.859375 0 "/></g></g></g><g fill="#000000" fill-opacity="1"><g transform="translate(68.137303, 17.977991)"><g><path d="M 7.3125 -3.109375 C 7.3125 -2.566406 7.21875 -2.09375 7.03125 -1.6875 C 6.84375 -1.289062 6.585938 -0.957031 6.265625 -0.6875 C 5.941406 -0.414062 5.578125 -0.210938 5.171875 -0.078125 C 4.773438 0.046875 4.363281 0.109375 3.9375 0.109375 C 3.519531 0.109375 3.113281 0.046875 2.71875 -0.078125 C 2.320312 -0.210938 1.960938 -0.414062 1.640625 -0.6875 C 1.316406 -0.957031 1.0625 -1.289062 0.875 -1.6875 C 0.6875 -2.09375 0.59375 -2.566406 0.59375 -3.109375 C 0.59375 -3.648438 0.6875 -4.117188 0.875 -4.515625 C 1.0625 -4.921875 1.316406 -5.257812 1.640625 -5.53125 C 1.960938 -5.800781 2.328125 -6 2.734375 -6.125 C 3.140625 -6.257812 3.550781 -6.328125 3.96875 -6.328125 C 4.394531 -6.328125 4.804688 -6.257812 5.203125 -6.125 C 5.597656 -6 5.953125 -5.800781 6.265625 -5.53125 C 6.585938 -5.257812 6.84375 -4.921875 7.03125 -4.515625 C 7.21875 -4.117188 7.3125 -3.648438 7.3125 -3.109375 Z M 1.734375 -3.109375 C 1.734375 -2.617188 1.84375 -2.207031 2.0625 -1.875 C 2.28125 -1.550781 2.554688 -1.304688 2.890625 -1.140625 C 3.234375 -0.972656 3.59375 -0.890625 3.96875 -0.890625 C 4.34375 -0.890625 4.695312 -0.972656 5.03125 -1.140625 C 5.363281 -1.304688 5.640625 -1.554688 5.859375 -1.890625 C 6.085938 -2.222656 6.203125 -2.628906 6.203125 -3.109375 C 6.203125 -3.597656 6.09375 -4.007812 5.875 -4.34375 C 5.65625 -4.675781 5.375 -4.921875 5.03125 -5.078125 C 4.695312 -5.242188 4.34375 -5.328125 3.96875 -5.328125 C 3.59375 -5.328125 3.234375 -5.242188 2.890625 -5.078125 C 2.554688 -4.921875 2.28125 -4.675781 2.0625 -4.34375 C 1.84375 -4.019531 1.734375 -3.609375 1.734375 -3.109375 Z M 1.734375 -3.109375 "/></g></g></g><g fill="#000000" fill-opacity="1"><g transform="translate(76.123826, 17.977991)"><g><path d="M 0.859375 1.8125 L 0.859375 -6.234375 L 1.984375 -6.234375 L 1.984375 -5.40625 C 2.203125 -5.738281 2.507812 -5.972656 2.90625 -6.109375 C 3.300781 -6.253906 3.695312 -6.328125 4.09375 -6.328125 C 4.8125 -6.328125 5.40625 -6.175781 5.875 -5.875 C 6.351562 -5.570312 6.707031 -5.175781 6.9375 -4.6875 C 7.175781 -4.195312 7.296875 -3.664062 7.296875 -3.09375 C 7.296875 -2.53125 7.171875 -2.003906 6.921875 -1.515625 C 6.679688 -1.035156 6.320312 -0.644531 5.84375 -0.34375 C 5.375 -0.0390625 4.785156 0.109375 4.078125 0.109375 C 3.691406 0.109375 3.3125 0.046875 2.9375 -0.078125 C 2.570312 -0.203125 2.253906 -0.445312 1.984375 -0.8125 L 1.984375 1.8125 Z M 1.984375 -3.125 C 1.984375 -2.632812 2.082031 -2.222656 2.28125 -1.890625 C 2.488281 -1.554688 2.753906 -1.304688 3.078125 -1.140625 C 3.398438 -0.972656 3.734375 -0.890625 4.078125 -0.890625 C 4.535156 -0.890625 4.921875 -1 5.234375 -1.21875 C 5.546875 -1.4375 5.773438 -1.710938 5.921875 -2.046875 C 6.078125 -2.390625 6.15625 -2.75 6.15625 -3.125 C 6.15625 -3.5 6.078125 -3.851562 5.921875 -4.1875 C 5.773438 -4.53125 5.546875 -4.804688 5.234375 -5.015625 C 4.929688 -5.234375 4.550781 -5.34375 4.09375 -5.34375 C 3.738281 -5.34375 3.398438 -5.257812 3.078125 -5.09375 C 2.765625 -4.925781 2.503906 -4.679688 2.296875 -4.359375 C 2.085938 -4.035156 1.984375 -3.625 1.984375 -3.125 Z M 1.984375 -3.125 "/></g></g></g><g fill="#000000" fill-opacity="1"><g transform="translate(84.05281, 17.977991)"><g><path d="M 6.984375 -3.390625 C 6.984375 -3.359375 6.984375 -3.328125 6.984375 -3.296875 C 6.984375 -3.265625 6.984375 -3.226562 6.984375 -3.1875 C 6.984375 -3.0625 6.972656 -2.945312 6.953125 -2.84375 L 1.6875 -2.84375 C 1.6875 -2.4375 1.796875 -2.085938 2.015625 -1.796875 C 2.234375 -1.503906 2.503906 -1.28125 2.828125 -1.125 C 3.148438 -0.96875 3.46875 -0.890625 3.78125 -0.890625 C 4.164062 -0.890625 4.523438 -0.972656 4.859375 -1.140625 C 5.191406 -1.304688 5.445312 -1.566406 5.625 -1.921875 L 6.796875 -1.921875 C 6.640625 -1.472656 6.40625 -1.09375 6.09375 -0.78125 C 5.78125 -0.476562 5.421875 -0.253906 5.015625 -0.109375 C 4.609375 0.0351562 4.191406 0.109375 3.765625 0.109375 C 3.367188 0.109375 2.976562 0.046875 2.59375 -0.078125 C 2.207031 -0.210938 1.859375 -0.414062 1.546875 -0.6875 C 1.242188 -0.957031 1 -1.289062 0.8125 -1.6875 C 0.632812 -2.09375 0.546875 -2.566406 0.546875 -3.109375 C 0.546875 -3.648438 0.632812 -4.117188 0.8125 -4.515625 C 1 -4.910156 1.242188 -5.242188 1.546875 -5.515625 C 1.859375 -5.785156 2.207031 -5.988281 2.59375 -6.125 C 2.976562 -6.257812 3.375 -6.328125 3.78125 -6.328125 C 4.300781 -6.328125 4.796875 -6.21875 5.265625 -6 C 5.742188 -5.78125 6.140625 -5.453125 6.453125 -5.015625 C 6.765625 -4.578125 6.941406 -4.035156 6.984375 -3.390625 Z M 5.796875 -3.78125 C 5.722656 -4.15625 5.582031 -4.453125 5.375 -4.671875 C 5.175781 -4.898438 4.9375 -5.066406 4.65625 -5.171875 C 4.375 -5.273438 4.082031 -5.328125 3.78125 -5.328125 C 3.488281 -5.328125 3.195312 -5.273438 2.90625 -5.171875 C 2.613281 -5.066406 2.363281 -4.898438 2.15625 -4.671875 C 1.945312 -4.441406 1.804688 -4.144531 1.734375 -3.78125 Z M 5.796875 -3.78125 "/></g></g></g><g fill="#000000" fill-opacity="1"><g transform="translate(91.648053, 17.977991)"><g><path d="M 1.984375 -5.453125 C 2.203125 -5.773438 2.460938 -6.003906 2.765625 -6.140625 C 3.066406 -6.285156 3.394531 -6.359375 3.75 -6.359375 C 3.863281 -6.359375 3.984375 -6.347656 4.109375 -6.328125 C 4.234375 -6.316406 4.359375 -6.296875 4.484375 -6.265625 L 4.484375 -5.28125 C 4.296875 -5.332031 4.101562 -5.359375 3.90625 -5.359375 C 3.5625 -5.359375 3.242188 -5.269531 2.953125 -5.09375 C 2.660156 -4.925781 2.425781 -4.691406 2.25 -4.390625 C 2.070312 -4.097656 1.984375 -3.757812 1.984375 -3.375 L 1.984375 0 L 0.859375 0 L 0.859375 -6.21875 L 1.984375 -6.21875 Z M 1.984375 -5.453125 "/></g></g></g><g clip-path="url(#a655bcfc5e)"><path fill="#000000" d="M 17.453125 0.625 C 9.800781 0.625 3.570312 6.855469 3.570312 14.511719 C 3.570312 22.164062 9.800781 28.398438 17.453125 28.398438 C 25.109375 28.398438 31.339844 22.164062 31.339844 14.511719 C 31.339844 6.855469 25.109375 0.625 17.453125 0.625 Z M 17.453125 28.164062 C 9.929688 28.164062 3.804688 22.035156 3.804688 14.511719 C 3.804688 6.984375 9.929688 0.859375 17.453125 0.859375 C 24.980469 0.859375 31.105469 6.984375 31.105469 14.511719 C 31.105469 22.035156 24.980469 28.164062 17.453125 28.164062 Z M 17.453125 28.164062 " fill-opacity="1" fill-rule="nonzero"/></g><g clip-path="url(#2219904a8b)"><path fill="#000000" d="M 19.921875 20.992188 C 19.785156 20.585938 19.636719 20.25 19.476562 20 L 19.40625 19.894531 L 12.082031 19.894531 L 12.082031 7.570312 C 12.082031 6.992188 12.011719 6.515625 11.875 6.15625 C 11.726562 5.777344 11.503906 5.472656 11.210938 5.253906 C 10.925781 5.042969 10.570312 4.894531 10.15625 4.816406 C 9.765625 4.742188 9.308594 4.703125 8.796875 4.703125 C 8.316406 4.703125 7.800781 4.738281 7.269531 4.816406 C 6.742188 4.894531 6.363281 4.949219 6.128906 4.992188 L 5.9375 5.027344 L 5.9375 21.648438 C 5.9375 22.621094 6.230469 23.402344 6.816406 23.976562 C 7.398438 24.550781 8.195312 24.835938 9.1875 24.835938 L 17.878906 24.835938 C 18.542969 24.835938 19.089844 24.640625 19.503906 24.246094 C 19.917969 23.855469 20.125 23.195312 20.125 22.285156 C 20.125 21.839844 20.058594 21.40625 19.921875 20.992188 Z M 19.171875 23.914062 C 18.847656 24.222656 18.421875 24.375 17.878906 24.375 L 9.1875 24.375 C 8.316406 24.375 7.648438 24.136719 7.152344 23.644531 C 6.652344 23.15625 6.410156 22.503906 6.410156 21.648438 L 6.410156 5.414062 C 6.632812 5.375 6.941406 5.328125 7.339844 5.273438 C 7.847656 5.199219 8.335938 5.164062 8.796875 5.164062 C 9.277344 5.164062 9.703125 5.203125 10.066406 5.273438 C 10.40625 5.339844 10.699219 5.460938 10.929688 5.628906 C 11.152344 5.789062 11.320312 6.023438 11.433594 6.320312 C 11.550781 6.632812 11.609375 7.054688 11.609375 7.574219 L 11.609375 20.359375 L 19.136719 20.359375 C 19.253906 20.566406 19.367188 20.828125 19.46875 21.140625 C 19.585938 21.503906 19.648438 21.894531 19.648438 22.289062 C 19.652344 23.066406 19.492188 23.613281 19.171875 23.914062 Z M 19.171875 23.914062 " fill-opacity="1" fill-rule="nonzero"/></g><g clip-path="url(#9671545a47)"><path fill="#000000" d="M 32.214844 4.691406 L 27.085938 4.691406 L 24.359375 15.351562 C 24.242188 15.816406 24.128906 16.371094 24.023438 17.011719 C 23.84375 16.003906 23.582031 14.851562 23.246094 13.574219 L 20.796875 4.691406 L 15.785156 4.691406 L 16.363281 6.609375 L 16.726562 6.523438 L 16.289062 5.070312 L 20.511719 5.070312 L 22.886719 13.671875 C 23.339844 15.382812 23.652344 16.863281 23.816406 18.078125 L 23.835938 18.242188 L 24.222656 18.242188 L 24.242188 18.078125 C 24.386719 17.011719 24.550781 16.128906 24.722656 15.445312 L 27.375 5.070312 L 31.714844 5.070312 L 26.957031 21.128906 L 27.320312 21.214844 Z M 32.214844 4.691406 " fill-opacity="1" fill-rule="nonzero"/></g><g clip-path="url(#f26532fec5)"><path fill="#000000" d="M 25.964844 24.472656 L 22.136719 24.472656 L 17.25 8.261719 L 16.886719 8.347656 L 21.820312 24.714844 L 21.859375 24.847656 L 26.242188 24.847656 L 26.804688 22.957031 L 26.441406 22.871094 Z M 25.964844 24.472656 " fill-opacity="1" fill-rule="nonzero"/></g></svg>